# xmcd
#
# Track frame offsets: 
#        183
#        16598
#        31643
#        48515
#        61755
#        74748
#        88085
#        97528
#        110970
#        119748
#        137118
#        147310
#        159583
#        179390
#        190953
#        204915
#        217605
#
# Disc length: 3069 seconds
#
# Revision: 3
# Processed by: cddbd v1.5.2PL0 Copyright (c) Steve Scherf et al.
# Submitted via: ExactAudioCopyFreeDBPlugin 1.0
#
DISCID=eb0bfb11
DTITLE=Howlin' Wolf - London Sessions
DYEAR=1992
DGENRE=Blues
TTITLE0=Rockin' Daddy
TTITLE1=I Ain't Superstitious
TTITLE2=Sittin' On Top Of The World
TTITLE3=Worried About My Baby
TTITLE4=What A Woman!
TTITLE5=Poor Boy
TTITLE6=Built For Comfort
TTITLE7=Who's Been Talking
TTITLE8=Little Red Rooster (Rehearsal)
TTITLE9=Little Red Rooster
TTITLE10=Do The Do
TTITLE11=Highway 
TTITLE12=Wang-dang-doodle
TTITLE13=Howlin' For My Baby
TTITLE14=Smokestack Lightnin'
TTITLE15=Back Door Man
TTITLE16=Killing Floor
EXTD=YEAR: 1992
EXTT0=
EXTT1=
EXTT2=
EXTT3=
EXTT4=
EXTT5=
EXTT6=
EXTT7=
EXTT8=
EXTT9=
EXTT10=
EXTT11=
EXTT12=
EXTT13=
EXTT14=
EXTT15=
EXTT16=
PLAYORDER=
